<mxfile host="app.diagrams.net" agent="Mozilla/5.0 (Windows NT 10.0; Win64; x64) AppleWebKit/537.36 (KHTML, like Gecko) Chrome/130.0.0.0 Safari/537.36" version="24.8.6">
  <diagram name="Page-1" id="Y7g_WqZgCFlrVJGTA6rj">
    <mxGraphModel dx="1500" dy="1965" grid="1" gridSize="10" guides="1" tooltips="1" connect="1" arrows="1" fold="1" page="1" pageScale="1" pageWidth="827" pageHeight="1169" math="0" shadow="0">
      <root>
        <mxCell id="0" />
        <mxCell id="1" parent="0" />
        <mxCell id="kS2PvovKEGz4N7qrqJaT-1" value="Research_Group" style="shape=table;startSize=30;container=1;collapsible=1;childLayout=tableLayout;fixedRows=1;rowLines=0;fontStyle=1;align=center;resizeLast=1;shadow=1;rounded=1;swimlaneFillColor=default;labelBackgroundColor=none;labelBorderColor=none;textShadow=0;html=1;fillColor=#5cc7b5;strokeColor=#005700;fontColor=#000000;" parent="1" vertex="1">
          <mxGeometry x="350" y="-250" width="180" height="140" as="geometry" />
        </mxCell>
        <mxCell id="kS2PvovKEGz4N7qrqJaT-2" value="" style="shape=tableRow;horizontal=0;startSize=0;swimlaneHead=0;swimlaneBody=0;fillColor=none;collapsible=0;dropTarget=0;points=[[0,0.5],[1,0.5]];portConstraint=eastwest;top=0;left=0;right=0;bottom=1;swimlaneFillColor=default;" parent="kS2PvovKEGz4N7qrqJaT-1" vertex="1">
          <mxGeometry y="30" width="180" height="30" as="geometry" />
        </mxCell>
        <mxCell id="kS2PvovKEGz4N7qrqJaT-3" value="PK" style="shape=partialRectangle;connectable=0;fillColor=none;top=0;left=0;bottom=0;right=0;fontStyle=1;overflow=hidden;whiteSpace=wrap;html=1;swimlaneFillColor=default;" parent="kS2PvovKEGz4N7qrqJaT-2" vertex="1">
          <mxGeometry width="30" height="30" as="geometry">
            <mxRectangle width="30" height="30" as="alternateBounds" />
          </mxGeometry>
        </mxCell>
        <mxCell id="kS2PvovKEGz4N7qrqJaT-4" value="Group_Name" style="shape=partialRectangle;connectable=0;fillColor=none;top=0;left=0;bottom=0;right=0;align=left;spacingLeft=6;fontStyle=5;overflow=hidden;whiteSpace=wrap;html=1;swimlaneFillColor=default;" parent="kS2PvovKEGz4N7qrqJaT-2" vertex="1">
          <mxGeometry x="30" width="150" height="30" as="geometry">
            <mxRectangle width="150" height="30" as="alternateBounds" />
          </mxGeometry>
        </mxCell>
        <mxCell id="kS2PvovKEGz4N7qrqJaT-5" value="" style="shape=tableRow;horizontal=0;startSize=0;swimlaneHead=0;swimlaneBody=0;fillColor=none;collapsible=0;dropTarget=0;points=[[0,0.5],[1,0.5]];portConstraint=eastwest;top=0;left=0;right=0;bottom=0;swimlaneFillColor=default;" parent="kS2PvovKEGz4N7qrqJaT-1" vertex="1">
          <mxGeometry y="60" width="180" height="20" as="geometry" />
        </mxCell>
        <mxCell id="kS2PvovKEGz4N7qrqJaT-6" value="" style="shape=partialRectangle;connectable=0;fillColor=none;top=0;left=0;bottom=0;right=0;editable=1;overflow=hidden;whiteSpace=wrap;html=1;swimlaneFillColor=default;" parent="kS2PvovKEGz4N7qrqJaT-5" vertex="1">
          <mxGeometry width="30" height="20" as="geometry">
            <mxRectangle width="30" height="20" as="alternateBounds" />
          </mxGeometry>
        </mxCell>
        <mxCell id="kS2PvovKEGz4N7qrqJaT-7" value="Dedicated_Lab&lt;span style=&quot;white-space: pre;&quot;&gt;&#x9;&lt;/span&gt;&lt;span style=&quot;white-space: pre;&quot;&gt;&#x9;&lt;/span&gt;" style="shape=partialRectangle;connectable=0;fillColor=none;top=0;left=0;bottom=0;right=0;align=left;spacingLeft=6;overflow=hidden;whiteSpace=wrap;html=1;swimlaneFillColor=default;" parent="kS2PvovKEGz4N7qrqJaT-5" vertex="1">
          <mxGeometry x="30" width="150" height="20" as="geometry">
            <mxRectangle width="150" height="20" as="alternateBounds" />
          </mxGeometry>
        </mxCell>
        <mxCell id="kS2PvovKEGz4N7qrqJaT-8" value="" style="shape=tableRow;horizontal=0;startSize=0;swimlaneHead=0;swimlaneBody=0;fillColor=none;collapsible=0;dropTarget=0;points=[[0,0.5],[1,0.5]];portConstraint=eastwest;top=0;left=0;right=0;bottom=0;swimlaneFillColor=default;" parent="kS2PvovKEGz4N7qrqJaT-1" vertex="1">
          <mxGeometry y="80" width="180" height="30" as="geometry" />
        </mxCell>
        <mxCell id="kS2PvovKEGz4N7qrqJaT-9" value="" style="shape=partialRectangle;connectable=0;fillColor=none;top=0;left=0;bottom=0;right=0;editable=1;overflow=hidden;whiteSpace=wrap;html=1;swimlaneFillColor=default;" parent="kS2PvovKEGz4N7qrqJaT-8" vertex="1">
          <mxGeometry width="30" height="30" as="geometry">
            <mxRectangle width="30" height="30" as="alternateBounds" />
          </mxGeometry>
        </mxCell>
        <mxCell id="kS2PvovKEGz4N7qrqJaT-10" value="Budget" style="shape=partialRectangle;connectable=0;fillColor=none;top=0;left=0;bottom=0;right=0;align=left;spacingLeft=6;overflow=hidden;whiteSpace=wrap;html=1;swimlaneFillColor=default;" parent="kS2PvovKEGz4N7qrqJaT-8" vertex="1">
          <mxGeometry x="30" width="150" height="30" as="geometry">
            <mxRectangle width="150" height="30" as="alternateBounds" />
          </mxGeometry>
        </mxCell>
        <mxCell id="kS2PvovKEGz4N7qrqJaT-11" value="" style="shape=tableRow;horizontal=0;startSize=0;swimlaneHead=0;swimlaneBody=0;fillColor=none;collapsible=0;dropTarget=0;points=[[0,0.5],[1,0.5]];portConstraint=eastwest;top=0;left=0;right=0;bottom=0;swimlaneFillColor=default;" parent="kS2PvovKEGz4N7qrqJaT-1" vertex="1">
          <mxGeometry y="110" width="180" height="30" as="geometry" />
        </mxCell>
        <mxCell id="kS2PvovKEGz4N7qrqJaT-12" value="" style="shape=partialRectangle;connectable=0;fillColor=none;top=0;left=0;bottom=0;right=0;editable=1;overflow=hidden;whiteSpace=wrap;html=1;swimlaneFillColor=default;" parent="kS2PvovKEGz4N7qrqJaT-11" vertex="1">
          <mxGeometry width="30" height="30" as="geometry">
            <mxRectangle width="30" height="30" as="alternateBounds" />
          </mxGeometry>
        </mxCell>
        <mxCell id="kS2PvovKEGz4N7qrqJaT-13" value="Group_Head" style="shape=partialRectangle;connectable=0;fillColor=none;top=0;left=0;bottom=0;right=0;align=left;spacingLeft=6;overflow=hidden;whiteSpace=wrap;html=1;swimlaneFillColor=default;" parent="kS2PvovKEGz4N7qrqJaT-11" vertex="1">
          <mxGeometry x="30" width="150" height="30" as="geometry">
            <mxRectangle width="150" height="30" as="alternateBounds" />
          </mxGeometry>
        </mxCell>
        <mxCell id="8oBaKbRVnc3hOvaJ1JA1-115" value="Publication" style="shape=table;startSize=30;container=1;collapsible=1;childLayout=tableLayout;fixedRows=1;rowLines=0;fontStyle=1;align=center;resizeLast=1;shadow=1;rounded=1;swimlaneFillColor=default;labelBackgroundColor=none;labelBorderColor=none;textShadow=0;html=1;fillColor=#5cc7b5;strokeColor=#005700;fontColor=#000000;" vertex="1" parent="1">
          <mxGeometry x="700" y="-405" width="190" height="210" as="geometry" />
        </mxCell>
        <mxCell id="8oBaKbRVnc3hOvaJ1JA1-116" value="" style="shape=tableRow;horizontal=0;startSize=0;swimlaneHead=0;swimlaneBody=0;fillColor=none;collapsible=0;dropTarget=0;points=[[0,0.5],[1,0.5]];portConstraint=eastwest;top=0;left=0;right=0;bottom=1;swimlaneFillColor=default;" vertex="1" parent="8oBaKbRVnc3hOvaJ1JA1-115">
          <mxGeometry y="30" width="190" height="30" as="geometry" />
        </mxCell>
        <mxCell id="8oBaKbRVnc3hOvaJ1JA1-117" value="PK" style="shape=partialRectangle;connectable=0;fillColor=none;top=0;left=0;bottom=0;right=0;fontStyle=1;overflow=hidden;whiteSpace=wrap;html=1;swimlaneFillColor=default;" vertex="1" parent="8oBaKbRVnc3hOvaJ1JA1-116">
          <mxGeometry width="30" height="30" as="geometry">
            <mxRectangle width="30" height="30" as="alternateBounds" />
          </mxGeometry>
        </mxCell>
        <mxCell id="8oBaKbRVnc3hOvaJ1JA1-118" value="Paper_Title" style="shape=partialRectangle;connectable=0;fillColor=none;top=0;left=0;bottom=0;right=0;align=left;spacingLeft=6;fontStyle=5;overflow=hidden;whiteSpace=wrap;html=1;swimlaneFillColor=default;" vertex="1" parent="8oBaKbRVnc3hOvaJ1JA1-116">
          <mxGeometry x="30" width="160" height="30" as="geometry">
            <mxRectangle width="160" height="30" as="alternateBounds" />
          </mxGeometry>
        </mxCell>
        <mxCell id="8oBaKbRVnc3hOvaJ1JA1-119" value="" style="shape=tableRow;horizontal=0;startSize=0;swimlaneHead=0;swimlaneBody=0;fillColor=none;collapsible=0;dropTarget=0;points=[[0,0.5],[1,0.5]];portConstraint=eastwest;top=0;left=0;right=0;bottom=0;swimlaneFillColor=default;" vertex="1" parent="8oBaKbRVnc3hOvaJ1JA1-115">
          <mxGeometry y="60" width="190" height="20" as="geometry" />
        </mxCell>
        <mxCell id="8oBaKbRVnc3hOvaJ1JA1-120" value="" style="shape=partialRectangle;connectable=0;fillColor=none;top=0;left=0;bottom=0;right=0;editable=1;overflow=hidden;whiteSpace=wrap;html=1;swimlaneFillColor=default;" vertex="1" parent="8oBaKbRVnc3hOvaJ1JA1-119">
          <mxGeometry width="30" height="20" as="geometry">
            <mxRectangle width="30" height="20" as="alternateBounds" />
          </mxGeometry>
        </mxCell>
        <mxCell id="8oBaKbRVnc3hOvaJ1JA1-121" value="Conference_Name" style="shape=partialRectangle;connectable=0;fillColor=none;top=0;left=0;bottom=0;right=0;align=left;spacingLeft=6;overflow=hidden;whiteSpace=wrap;html=1;swimlaneFillColor=default;" vertex="1" parent="8oBaKbRVnc3hOvaJ1JA1-119">
          <mxGeometry x="30" width="160" height="20" as="geometry">
            <mxRectangle width="160" height="20" as="alternateBounds" />
          </mxGeometry>
        </mxCell>
        <mxCell id="8oBaKbRVnc3hOvaJ1JA1-122" value="" style="shape=tableRow;horizontal=0;startSize=0;swimlaneHead=0;swimlaneBody=0;fillColor=none;collapsible=0;dropTarget=0;points=[[0,0.5],[1,0.5]];portConstraint=eastwest;top=0;left=0;right=0;bottom=0;swimlaneFillColor=default;" vertex="1" parent="8oBaKbRVnc3hOvaJ1JA1-115">
          <mxGeometry y="80" width="190" height="30" as="geometry" />
        </mxCell>
        <mxCell id="8oBaKbRVnc3hOvaJ1JA1-123" value="" style="shape=partialRectangle;connectable=0;fillColor=none;top=0;left=0;bottom=0;right=0;editable=1;overflow=hidden;whiteSpace=wrap;html=1;swimlaneFillColor=default;" vertex="1" parent="8oBaKbRVnc3hOvaJ1JA1-122">
          <mxGeometry width="30" height="30" as="geometry">
            <mxRectangle width="30" height="30" as="alternateBounds" />
          </mxGeometry>
        </mxCell>
        <mxCell id="8oBaKbRVnc3hOvaJ1JA1-124" value="Publication_Date" style="shape=partialRectangle;connectable=0;fillColor=none;top=0;left=0;bottom=0;right=0;align=left;spacingLeft=6;overflow=hidden;whiteSpace=wrap;html=1;swimlaneFillColor=default;" vertex="1" parent="8oBaKbRVnc3hOvaJ1JA1-122">
          <mxGeometry x="30" width="160" height="30" as="geometry">
            <mxRectangle width="160" height="30" as="alternateBounds" />
          </mxGeometry>
        </mxCell>
        <mxCell id="8oBaKbRVnc3hOvaJ1JA1-125" value="" style="shape=tableRow;horizontal=0;startSize=0;swimlaneHead=0;swimlaneBody=0;fillColor=none;collapsible=0;dropTarget=0;points=[[0,0.5],[1,0.5]];portConstraint=eastwest;top=0;left=0;right=0;bottom=0;swimlaneFillColor=default;" vertex="1" parent="8oBaKbRVnc3hOvaJ1JA1-115">
          <mxGeometry y="110" width="190" height="30" as="geometry" />
        </mxCell>
        <mxCell id="8oBaKbRVnc3hOvaJ1JA1-126" value="" style="shape=partialRectangle;connectable=0;fillColor=none;top=0;left=0;bottom=0;right=0;editable=1;overflow=hidden;whiteSpace=wrap;html=1;swimlaneFillColor=default;" vertex="1" parent="8oBaKbRVnc3hOvaJ1JA1-125">
          <mxGeometry width="30" height="30" as="geometry">
            <mxRectangle width="30" height="30" as="alternateBounds" />
          </mxGeometry>
        </mxCell>
        <mxCell id="8oBaKbRVnc3hOvaJ1JA1-127" value="Research_Domain" style="shape=partialRectangle;connectable=0;fillColor=none;top=0;left=0;bottom=0;right=0;align=left;spacingLeft=6;overflow=hidden;whiteSpace=wrap;html=1;swimlaneFillColor=default;" vertex="1" parent="8oBaKbRVnc3hOvaJ1JA1-125">
          <mxGeometry x="30" width="160" height="30" as="geometry">
            <mxRectangle width="160" height="30" as="alternateBounds" />
          </mxGeometry>
        </mxCell>
        <mxCell id="8oBaKbRVnc3hOvaJ1JA1-128" value="" style="shape=tableRow;horizontal=0;startSize=0;swimlaneHead=0;swimlaneBody=0;fillColor=none;collapsible=0;dropTarget=0;points=[[0,0.5],[1,0.5]];portConstraint=eastwest;top=0;left=0;right=0;bottom=0;swimlaneFillColor=default;" vertex="1" parent="8oBaKbRVnc3hOvaJ1JA1-115">
          <mxGeometry y="140" width="190" height="30" as="geometry" />
        </mxCell>
        <mxCell id="8oBaKbRVnc3hOvaJ1JA1-129" value="" style="shape=partialRectangle;connectable=0;fillColor=none;top=0;left=0;bottom=0;right=0;editable=1;overflow=hidden;whiteSpace=wrap;html=1;swimlaneFillColor=default;" vertex="1" parent="8oBaKbRVnc3hOvaJ1JA1-128">
          <mxGeometry width="30" height="30" as="geometry">
            <mxRectangle width="30" height="30" as="alternateBounds" />
          </mxGeometry>
        </mxCell>
        <mxCell id="8oBaKbRVnc3hOvaJ1JA1-130" value="Research_Lab" style="shape=partialRectangle;connectable=0;fillColor=none;top=0;left=0;bottom=0;right=0;align=left;spacingLeft=6;overflow=hidden;whiteSpace=wrap;html=1;swimlaneFillColor=default;" vertex="1" parent="8oBaKbRVnc3hOvaJ1JA1-128">
          <mxGeometry x="30" width="160" height="30" as="geometry">
            <mxRectangle width="160" height="30" as="alternateBounds" />
          </mxGeometry>
        </mxCell>
        <mxCell id="8oBaKbRVnc3hOvaJ1JA1-131" value="" style="shape=tableRow;horizontal=0;startSize=0;swimlaneHead=0;swimlaneBody=0;fillColor=none;collapsible=0;dropTarget=0;points=[[0,0.5],[1,0.5]];portConstraint=eastwest;top=0;left=0;right=0;bottom=0;swimlaneFillColor=default;" vertex="1" parent="8oBaKbRVnc3hOvaJ1JA1-115">
          <mxGeometry y="170" width="190" height="30" as="geometry" />
        </mxCell>
        <mxCell id="8oBaKbRVnc3hOvaJ1JA1-132" value="" style="shape=partialRectangle;connectable=0;fillColor=none;top=0;left=0;bottom=0;right=0;editable=1;overflow=hidden;whiteSpace=wrap;html=1;swimlaneFillColor=default;" vertex="1" parent="8oBaKbRVnc3hOvaJ1JA1-131">
          <mxGeometry width="30" height="30" as="geometry">
            <mxRectangle width="30" height="30" as="alternateBounds" />
          </mxGeometry>
        </mxCell>
        <mxCell id="8oBaKbRVnc3hOvaJ1JA1-133" value="Sumamry" style="shape=partialRectangle;connectable=0;fillColor=none;top=0;left=0;bottom=0;right=0;align=left;spacingLeft=6;overflow=hidden;whiteSpace=wrap;html=1;swimlaneFillColor=default;" vertex="1" parent="8oBaKbRVnc3hOvaJ1JA1-131">
          <mxGeometry x="30" width="160" height="30" as="geometry">
            <mxRectangle width="160" height="30" as="alternateBounds" />
          </mxGeometry>
        </mxCell>
        <mxCell id="8oBaKbRVnc3hOvaJ1JA1-51" value="Faculty" style="shape=table;startSize=30;container=1;collapsible=1;childLayout=tableLayout;fixedRows=1;rowLines=0;fontStyle=1;align=center;resizeLast=1;swimlaneFillColor=default;labelBackgroundColor=none;labelBorderColor=none;textShadow=0;html=1;fillColor=#5cc7b5;strokeColor=#005700;rounded=1;shadow=1;fontColor=#000000;" vertex="1" parent="1">
          <mxGeometry x="90" y="-120" width="180" height="180" as="geometry" />
        </mxCell>
        <mxCell id="8oBaKbRVnc3hOvaJ1JA1-52" value="" style="shape=tableRow;horizontal=0;startSize=0;swimlaneHead=0;swimlaneBody=0;fillColor=none;collapsible=0;dropTarget=0;points=[[0,0.5],[1,0.5]];portConstraint=eastwest;top=0;left=0;right=0;bottom=0;html=1;swimlaneFillColor=default;" vertex="1" parent="8oBaKbRVnc3hOvaJ1JA1-51">
          <mxGeometry y="30" width="180" height="30" as="geometry" />
        </mxCell>
        <mxCell id="8oBaKbRVnc3hOvaJ1JA1-53" value="PK" style="shape=partialRectangle;connectable=0;fillColor=none;top=0;left=0;bottom=0;right=0;fontStyle=1;overflow=hidden;html=1;whiteSpace=wrap;swimlaneFillColor=default;" vertex="1" parent="8oBaKbRVnc3hOvaJ1JA1-52">
          <mxGeometry width="60" height="30" as="geometry">
            <mxRectangle width="60" height="30" as="alternateBounds" />
          </mxGeometry>
        </mxCell>
        <mxCell id="8oBaKbRVnc3hOvaJ1JA1-54" value="Faculty_ID" style="shape=partialRectangle;connectable=0;fillColor=none;top=0;left=0;bottom=0;right=0;align=left;spacingLeft=6;fontStyle=5;overflow=hidden;html=1;whiteSpace=wrap;swimlaneFillColor=default;" vertex="1" parent="8oBaKbRVnc3hOvaJ1JA1-52">
          <mxGeometry x="60" width="120" height="30" as="geometry">
            <mxRectangle width="120" height="30" as="alternateBounds" />
          </mxGeometry>
        </mxCell>
        <mxCell id="8oBaKbRVnc3hOvaJ1JA1-55" value="" style="shape=tableRow;horizontal=0;startSize=0;swimlaneHead=0;swimlaneBody=0;fillColor=none;collapsible=0;dropTarget=0;points=[[0,0.5],[1,0.5]];portConstraint=eastwest;top=0;left=0;right=0;bottom=1;html=1;swimlaneFillColor=default;" vertex="1" parent="8oBaKbRVnc3hOvaJ1JA1-51">
          <mxGeometry y="60" width="180" height="30" as="geometry" />
        </mxCell>
        <mxCell id="8oBaKbRVnc3hOvaJ1JA1-56" value="FK" style="shape=partialRectangle;connectable=0;fillColor=none;top=0;left=0;bottom=0;right=0;fontStyle=1;overflow=hidden;html=1;whiteSpace=wrap;swimlaneFillColor=default;" vertex="1" parent="8oBaKbRVnc3hOvaJ1JA1-55">
          <mxGeometry width="60" height="30" as="geometry">
            <mxRectangle width="60" height="30" as="alternateBounds" />
          </mxGeometry>
        </mxCell>
        <mxCell id="8oBaKbRVnc3hOvaJ1JA1-57" value="Group_name" style="shape=partialRectangle;connectable=0;fillColor=none;top=0;left=0;bottom=0;right=0;align=left;spacingLeft=6;fontStyle=5;overflow=hidden;html=1;whiteSpace=wrap;swimlaneFillColor=default;" vertex="1" parent="8oBaKbRVnc3hOvaJ1JA1-55">
          <mxGeometry x="60" width="120" height="30" as="geometry">
            <mxRectangle width="120" height="30" as="alternateBounds" />
          </mxGeometry>
        </mxCell>
        <mxCell id="8oBaKbRVnc3hOvaJ1JA1-58" value="" style="shape=tableRow;horizontal=0;startSize=0;swimlaneHead=0;swimlaneBody=0;fillColor=none;collapsible=0;dropTarget=0;points=[[0,0.5],[1,0.5]];portConstraint=eastwest;top=0;left=0;right=0;bottom=0;html=1;swimlaneFillColor=default;" vertex="1" parent="8oBaKbRVnc3hOvaJ1JA1-51">
          <mxGeometry y="90" width="180" height="30" as="geometry" />
        </mxCell>
        <mxCell id="8oBaKbRVnc3hOvaJ1JA1-59" value="" style="shape=partialRectangle;connectable=0;fillColor=none;top=0;left=0;bottom=0;right=0;editable=1;overflow=hidden;html=1;whiteSpace=wrap;swimlaneFillColor=default;" vertex="1" parent="8oBaKbRVnc3hOvaJ1JA1-58">
          <mxGeometry width="60" height="30" as="geometry">
            <mxRectangle width="60" height="30" as="alternateBounds" />
          </mxGeometry>
        </mxCell>
        <mxCell id="8oBaKbRVnc3hOvaJ1JA1-60" value="Name" style="shape=partialRectangle;connectable=0;fillColor=none;top=0;left=0;bottom=0;right=0;align=left;spacingLeft=6;overflow=hidden;html=1;whiteSpace=wrap;swimlaneFillColor=default;" vertex="1" parent="8oBaKbRVnc3hOvaJ1JA1-58">
          <mxGeometry x="60" width="120" height="30" as="geometry">
            <mxRectangle width="120" height="30" as="alternateBounds" />
          </mxGeometry>
        </mxCell>
        <mxCell id="8oBaKbRVnc3hOvaJ1JA1-61" value="" style="shape=tableRow;horizontal=0;startSize=0;swimlaneHead=0;swimlaneBody=0;fillColor=none;collapsible=0;dropTarget=0;points=[[0,0.5],[1,0.5]];portConstraint=eastwest;top=0;left=0;right=0;bottom=0;html=1;swimlaneFillColor=default;" vertex="1" parent="8oBaKbRVnc3hOvaJ1JA1-51">
          <mxGeometry y="120" width="180" height="30" as="geometry" />
        </mxCell>
        <mxCell id="8oBaKbRVnc3hOvaJ1JA1-62" value="" style="shape=partialRectangle;connectable=0;fillColor=none;top=0;left=0;bottom=0;right=0;editable=1;overflow=hidden;html=1;whiteSpace=wrap;swimlaneFillColor=default;" vertex="1" parent="8oBaKbRVnc3hOvaJ1JA1-61">
          <mxGeometry width="60" height="30" as="geometry">
            <mxRectangle width="60" height="30" as="alternateBounds" />
          </mxGeometry>
        </mxCell>
        <mxCell id="8oBaKbRVnc3hOvaJ1JA1-63" value="Contact_Number" style="shape=partialRectangle;connectable=0;fillColor=none;top=0;left=0;bottom=0;right=0;align=left;spacingLeft=6;overflow=hidden;html=1;whiteSpace=wrap;swimlaneFillColor=default;" vertex="1" parent="8oBaKbRVnc3hOvaJ1JA1-61">
          <mxGeometry x="60" width="120" height="30" as="geometry">
            <mxRectangle width="120" height="30" as="alternateBounds" />
          </mxGeometry>
        </mxCell>
        <mxCell id="8oBaKbRVnc3hOvaJ1JA1-77" value="" style="shape=tableRow;horizontal=0;startSize=0;swimlaneHead=0;swimlaneBody=0;fillColor=none;collapsible=0;dropTarget=0;points=[[0,0.5],[1,0.5]];portConstraint=eastwest;top=0;left=0;right=0;bottom=0;html=1;swimlaneFillColor=default;" vertex="1" parent="8oBaKbRVnc3hOvaJ1JA1-51">
          <mxGeometry y="150" width="180" height="30" as="geometry" />
        </mxCell>
        <mxCell id="8oBaKbRVnc3hOvaJ1JA1-78" value="" style="shape=partialRectangle;connectable=0;fillColor=none;top=0;left=0;bottom=0;right=0;editable=1;overflow=hidden;html=1;whiteSpace=wrap;swimlaneFillColor=default;" vertex="1" parent="8oBaKbRVnc3hOvaJ1JA1-77">
          <mxGeometry width="60" height="30" as="geometry">
            <mxRectangle width="60" height="30" as="alternateBounds" />
          </mxGeometry>
        </mxCell>
        <mxCell id="8oBaKbRVnc3hOvaJ1JA1-79" value="Research_lab" style="shape=partialRectangle;connectable=0;fillColor=#FFFFFF;top=0;left=0;bottom=0;right=0;align=left;spacingLeft=6;overflow=hidden;html=1;whiteSpace=wrap;swimlaneFillColor=default;strokeColor=#3A5431;fontColor=#000033;" vertex="1" parent="8oBaKbRVnc3hOvaJ1JA1-77">
          <mxGeometry x="60" width="120" height="30" as="geometry">
            <mxRectangle width="120" height="30" as="alternateBounds" />
          </mxGeometry>
        </mxCell>
        <mxCell id="8oBaKbRVnc3hOvaJ1JA1-99" value="Project&amp;nbsp;" style="shape=table;startSize=30;container=1;collapsible=1;childLayout=tableLayout;fixedRows=1;rowLines=0;fontStyle=1;align=center;resizeLast=1;swimlaneFillColor=default;labelBackgroundColor=none;labelBorderColor=none;textShadow=0;html=1;fillColor=#5cc7b5;rounded=1;shadow=1;strokeColor=#005700;fontColor=#000000;" vertex="1" parent="1">
          <mxGeometry x="420" y="170" width="190" height="180" as="geometry" />
        </mxCell>
        <mxCell id="8oBaKbRVnc3hOvaJ1JA1-100" value="" style="shape=tableRow;horizontal=0;startSize=0;swimlaneHead=0;swimlaneBody=0;fillColor=none;collapsible=0;dropTarget=0;points=[[0,0.5],[1,0.5]];portConstraint=eastwest;top=0;left=0;right=0;bottom=0;html=1;swimlaneFillColor=default;" vertex="1" parent="8oBaKbRVnc3hOvaJ1JA1-99">
          <mxGeometry y="30" width="190" height="30" as="geometry" />
        </mxCell>
        <mxCell id="8oBaKbRVnc3hOvaJ1JA1-101" value="PK" style="shape=partialRectangle;connectable=0;fillColor=none;top=0;left=0;bottom=0;right=0;fontStyle=1;overflow=hidden;html=1;whiteSpace=wrap;swimlaneFillColor=default;" vertex="1" parent="8oBaKbRVnc3hOvaJ1JA1-100">
          <mxGeometry width="60" height="30" as="geometry">
            <mxRectangle width="60" height="30" as="alternateBounds" />
          </mxGeometry>
        </mxCell>
        <mxCell id="8oBaKbRVnc3hOvaJ1JA1-102" value="Project_Title" style="shape=partialRectangle;connectable=0;fillColor=none;top=0;left=0;bottom=0;right=0;align=left;spacingLeft=6;fontStyle=5;overflow=hidden;html=1;whiteSpace=wrap;swimlaneFillColor=default;" vertex="1" parent="8oBaKbRVnc3hOvaJ1JA1-100">
          <mxGeometry x="60" width="130" height="30" as="geometry">
            <mxRectangle width="130" height="30" as="alternateBounds" />
          </mxGeometry>
        </mxCell>
        <mxCell id="8oBaKbRVnc3hOvaJ1JA1-103" value="" style="shape=tableRow;horizontal=0;startSize=0;swimlaneHead=0;swimlaneBody=0;fillColor=none;collapsible=0;dropTarget=0;points=[[0,0.5],[1,0.5]];portConstraint=eastwest;top=0;left=0;right=0;bottom=1;html=1;swimlaneFillColor=default;" vertex="1" parent="8oBaKbRVnc3hOvaJ1JA1-99">
          <mxGeometry y="60" width="190" height="30" as="geometry" />
        </mxCell>
        <mxCell id="8oBaKbRVnc3hOvaJ1JA1-104" value="FK" style="shape=partialRectangle;connectable=0;fillColor=none;top=0;left=0;bottom=0;right=0;fontStyle=1;overflow=hidden;html=1;whiteSpace=wrap;swimlaneFillColor=default;" vertex="1" parent="8oBaKbRVnc3hOvaJ1JA1-103">
          <mxGeometry width="60" height="30" as="geometry">
            <mxRectangle width="60" height="30" as="alternateBounds" />
          </mxGeometry>
        </mxCell>
        <mxCell id="8oBaKbRVnc3hOvaJ1JA1-105" value="Supervisor" style="shape=partialRectangle;connectable=0;fillColor=none;top=0;left=0;bottom=0;right=0;align=left;spacingLeft=6;fontStyle=5;overflow=hidden;html=1;whiteSpace=wrap;swimlaneFillColor=default;" vertex="1" parent="8oBaKbRVnc3hOvaJ1JA1-103">
          <mxGeometry x="60" width="130" height="30" as="geometry">
            <mxRectangle width="130" height="30" as="alternateBounds" />
          </mxGeometry>
        </mxCell>
        <mxCell id="8oBaKbRVnc3hOvaJ1JA1-106" value="" style="shape=tableRow;horizontal=0;startSize=0;swimlaneHead=0;swimlaneBody=0;fillColor=none;collapsible=0;dropTarget=0;points=[[0,0.5],[1,0.5]];portConstraint=eastwest;top=0;left=0;right=0;bottom=0;html=1;swimlaneFillColor=default;" vertex="1" parent="8oBaKbRVnc3hOvaJ1JA1-99">
          <mxGeometry y="90" width="190" height="30" as="geometry" />
        </mxCell>
        <mxCell id="8oBaKbRVnc3hOvaJ1JA1-107" value="" style="shape=partialRectangle;connectable=0;fillColor=none;top=0;left=0;bottom=0;right=0;editable=1;overflow=hidden;html=1;whiteSpace=wrap;swimlaneFillColor=default;" vertex="1" parent="8oBaKbRVnc3hOvaJ1JA1-106">
          <mxGeometry width="60" height="30" as="geometry">
            <mxRectangle width="60" height="30" as="alternateBounds" />
          </mxGeometry>
        </mxCell>
        <mxCell id="8oBaKbRVnc3hOvaJ1JA1-108" value="Start_Date" style="shape=partialRectangle;connectable=0;fillColor=none;top=0;left=0;bottom=0;right=0;align=left;spacingLeft=6;overflow=hidden;html=1;whiteSpace=wrap;swimlaneFillColor=default;" vertex="1" parent="8oBaKbRVnc3hOvaJ1JA1-106">
          <mxGeometry x="60" width="130" height="30" as="geometry">
            <mxRectangle width="130" height="30" as="alternateBounds" />
          </mxGeometry>
        </mxCell>
        <mxCell id="8oBaKbRVnc3hOvaJ1JA1-109" value="" style="shape=tableRow;horizontal=0;startSize=0;swimlaneHead=0;swimlaneBody=0;fillColor=none;collapsible=0;dropTarget=0;points=[[0,0.5],[1,0.5]];portConstraint=eastwest;top=0;left=0;right=0;bottom=0;html=1;swimlaneFillColor=default;" vertex="1" parent="8oBaKbRVnc3hOvaJ1JA1-99">
          <mxGeometry y="120" width="190" height="30" as="geometry" />
        </mxCell>
        <mxCell id="8oBaKbRVnc3hOvaJ1JA1-110" value="" style="shape=partialRectangle;connectable=0;fillColor=none;top=0;left=0;bottom=0;right=0;editable=1;overflow=hidden;html=1;whiteSpace=wrap;swimlaneFillColor=default;" vertex="1" parent="8oBaKbRVnc3hOvaJ1JA1-109">
          <mxGeometry width="60" height="30" as="geometry">
            <mxRectangle width="60" height="30" as="alternateBounds" />
          </mxGeometry>
        </mxCell>
        <mxCell id="8oBaKbRVnc3hOvaJ1JA1-111" value="Estimated_End_Date" style="shape=partialRectangle;connectable=0;fillColor=none;top=0;left=0;bottom=0;right=0;align=left;spacingLeft=6;overflow=hidden;html=1;whiteSpace=wrap;swimlaneFillColor=default;" vertex="1" parent="8oBaKbRVnc3hOvaJ1JA1-109">
          <mxGeometry x="60" width="130" height="30" as="geometry">
            <mxRectangle width="130" height="30" as="alternateBounds" />
          </mxGeometry>
        </mxCell>
        <mxCell id="8oBaKbRVnc3hOvaJ1JA1-112" value="" style="shape=tableRow;horizontal=0;startSize=0;swimlaneHead=0;swimlaneBody=0;fillColor=none;collapsible=0;dropTarget=0;points=[[0,0.5],[1,0.5]];portConstraint=eastwest;top=0;left=0;right=0;bottom=0;html=1;swimlaneFillColor=default;" vertex="1" parent="8oBaKbRVnc3hOvaJ1JA1-99">
          <mxGeometry y="150" width="190" height="30" as="geometry" />
        </mxCell>
        <mxCell id="8oBaKbRVnc3hOvaJ1JA1-113" value="" style="shape=partialRectangle;connectable=0;fillColor=none;top=0;left=0;bottom=0;right=0;editable=1;overflow=hidden;html=1;whiteSpace=wrap;swimlaneFillColor=default;" vertex="1" parent="8oBaKbRVnc3hOvaJ1JA1-112">
          <mxGeometry width="60" height="30" as="geometry">
            <mxRectangle width="60" height="30" as="alternateBounds" />
          </mxGeometry>
        </mxCell>
        <mxCell id="8oBaKbRVnc3hOvaJ1JA1-114" value="Research_Domain" style="shape=partialRectangle;connectable=0;fillColor=none;top=0;left=0;bottom=0;right=0;align=left;spacingLeft=6;overflow=hidden;html=1;whiteSpace=wrap;swimlaneFillColor=default;" vertex="1" parent="8oBaKbRVnc3hOvaJ1JA1-112">
          <mxGeometry x="60" width="130" height="30" as="geometry">
            <mxRectangle width="130" height="30" as="alternateBounds" />
          </mxGeometry>
        </mxCell>
        <mxCell id="8oBaKbRVnc3hOvaJ1JA1-80" value="Student" style="shape=table;startSize=30;container=1;collapsible=1;childLayout=tableLayout;fixedRows=1;rowLines=0;fontStyle=1;align=center;resizeLast=1;swimlaneFillColor=default;labelBackgroundColor=none;labelBorderColor=none;textShadow=0;html=1;fillColor=#5cc7b5;rounded=1;shadow=1;strokeWidth=1;perimeterSpacing=0;strokeColor=#005700;fontColor=#000000;" vertex="1" parent="1">
          <mxGeometry x="760" y="-120" width="180" height="210" as="geometry" />
        </mxCell>
        <mxCell id="8oBaKbRVnc3hOvaJ1JA1-81" value="" style="shape=tableRow;horizontal=0;startSize=0;swimlaneHead=0;swimlaneBody=0;fillColor=none;collapsible=0;dropTarget=0;points=[[0,0.5],[1,0.5]];portConstraint=eastwest;top=0;left=0;right=0;bottom=0;html=1;swimlaneFillColor=default;" vertex="1" parent="8oBaKbRVnc3hOvaJ1JA1-80">
          <mxGeometry y="30" width="180" height="30" as="geometry" />
        </mxCell>
        <mxCell id="8oBaKbRVnc3hOvaJ1JA1-82" value="PK" style="shape=partialRectangle;connectable=0;fillColor=none;top=0;left=0;bottom=0;right=0;fontStyle=1;overflow=hidden;html=1;whiteSpace=wrap;swimlaneFillColor=default;" vertex="1" parent="8oBaKbRVnc3hOvaJ1JA1-81">
          <mxGeometry width="60" height="30" as="geometry">
            <mxRectangle width="60" height="30" as="alternateBounds" />
          </mxGeometry>
        </mxCell>
        <mxCell id="8oBaKbRVnc3hOvaJ1JA1-83" value="Student_ID" style="shape=partialRectangle;connectable=0;fillColor=none;top=0;left=0;bottom=0;right=0;align=left;spacingLeft=6;fontStyle=5;overflow=hidden;html=1;whiteSpace=wrap;swimlaneFillColor=default;" vertex="1" parent="8oBaKbRVnc3hOvaJ1JA1-81">
          <mxGeometry x="60" width="120" height="30" as="geometry">
            <mxRectangle width="120" height="30" as="alternateBounds" />
          </mxGeometry>
        </mxCell>
        <mxCell id="8oBaKbRVnc3hOvaJ1JA1-96" value="" style="shape=tableRow;horizontal=0;startSize=0;swimlaneHead=0;swimlaneBody=0;fillColor=none;collapsible=0;dropTarget=0;points=[[0,0.5],[1,0.5]];portConstraint=eastwest;top=0;left=0;right=0;bottom=0;html=1;swimlaneFillColor=default;" vertex="1" parent="8oBaKbRVnc3hOvaJ1JA1-80">
          <mxGeometry y="60" width="180" height="30" as="geometry" />
        </mxCell>
        <mxCell id="8oBaKbRVnc3hOvaJ1JA1-97" value="FK" style="shape=partialRectangle;connectable=0;fillColor=none;top=0;left=0;bottom=0;right=0;fontStyle=1;overflow=hidden;html=1;whiteSpace=wrap;swimlaneFillColor=default;" vertex="1" parent="8oBaKbRVnc3hOvaJ1JA1-96">
          <mxGeometry width="60" height="30" as="geometry">
            <mxRectangle width="60" height="30" as="alternateBounds" />
          </mxGeometry>
        </mxCell>
        <mxCell id="8oBaKbRVnc3hOvaJ1JA1-98" value="Supervisor" style="shape=partialRectangle;connectable=0;fillColor=none;top=0;left=0;bottom=0;right=0;align=left;spacingLeft=6;fontStyle=5;overflow=hidden;html=1;whiteSpace=wrap;swimlaneFillColor=default;" vertex="1" parent="8oBaKbRVnc3hOvaJ1JA1-96">
          <mxGeometry x="60" width="120" height="30" as="geometry">
            <mxRectangle width="120" height="30" as="alternateBounds" />
          </mxGeometry>
        </mxCell>
        <mxCell id="8oBaKbRVnc3hOvaJ1JA1-84" value="" style="shape=tableRow;horizontal=0;startSize=0;swimlaneHead=0;swimlaneBody=0;fillColor=none;collapsible=0;dropTarget=0;points=[[0,0.5],[1,0.5]];portConstraint=eastwest;top=0;left=0;right=0;bottom=1;html=1;swimlaneFillColor=default;" vertex="1" parent="8oBaKbRVnc3hOvaJ1JA1-80">
          <mxGeometry y="90" width="180" height="30" as="geometry" />
        </mxCell>
        <mxCell id="8oBaKbRVnc3hOvaJ1JA1-85" value="FK" style="shape=partialRectangle;connectable=0;fillColor=none;top=0;left=0;bottom=0;right=0;fontStyle=1;overflow=hidden;html=1;whiteSpace=wrap;swimlaneFillColor=default;" vertex="1" parent="8oBaKbRVnc3hOvaJ1JA1-84">
          <mxGeometry width="60" height="30" as="geometry">
            <mxRectangle width="60" height="30" as="alternateBounds" />
          </mxGeometry>
        </mxCell>
        <mxCell id="8oBaKbRVnc3hOvaJ1JA1-86" value="Group_name" style="shape=partialRectangle;connectable=0;fillColor=none;top=0;left=0;bottom=0;right=0;align=left;spacingLeft=6;fontStyle=5;overflow=hidden;html=1;whiteSpace=wrap;swimlaneFillColor=default;" vertex="1" parent="8oBaKbRVnc3hOvaJ1JA1-84">
          <mxGeometry x="60" width="120" height="30" as="geometry">
            <mxRectangle width="120" height="30" as="alternateBounds" />
          </mxGeometry>
        </mxCell>
        <mxCell id="8oBaKbRVnc3hOvaJ1JA1-87" value="" style="shape=tableRow;horizontal=0;startSize=0;swimlaneHead=0;swimlaneBody=0;fillColor=none;collapsible=0;dropTarget=0;points=[[0,0.5],[1,0.5]];portConstraint=eastwest;top=0;left=0;right=0;bottom=0;html=1;swimlaneFillColor=default;" vertex="1" parent="8oBaKbRVnc3hOvaJ1JA1-80">
          <mxGeometry y="120" width="180" height="30" as="geometry" />
        </mxCell>
        <mxCell id="8oBaKbRVnc3hOvaJ1JA1-88" value="" style="shape=partialRectangle;connectable=0;fillColor=none;top=0;left=0;bottom=0;right=0;editable=1;overflow=hidden;html=1;whiteSpace=wrap;swimlaneFillColor=default;" vertex="1" parent="8oBaKbRVnc3hOvaJ1JA1-87">
          <mxGeometry width="60" height="30" as="geometry">
            <mxRectangle width="60" height="30" as="alternateBounds" />
          </mxGeometry>
        </mxCell>
        <mxCell id="8oBaKbRVnc3hOvaJ1JA1-89" value="Name" style="shape=partialRectangle;connectable=0;fillColor=none;top=0;left=0;bottom=0;right=0;align=left;spacingLeft=6;overflow=hidden;html=1;whiteSpace=wrap;swimlaneFillColor=default;" vertex="1" parent="8oBaKbRVnc3hOvaJ1JA1-87">
          <mxGeometry x="60" width="120" height="30" as="geometry">
            <mxRectangle width="120" height="30" as="alternateBounds" />
          </mxGeometry>
        </mxCell>
        <mxCell id="8oBaKbRVnc3hOvaJ1JA1-90" value="" style="shape=tableRow;horizontal=0;startSize=0;swimlaneHead=0;swimlaneBody=0;fillColor=none;collapsible=0;dropTarget=0;points=[[0,0.5],[1,0.5]];portConstraint=eastwest;top=0;left=0;right=0;bottom=0;html=1;swimlaneFillColor=default;" vertex="1" parent="8oBaKbRVnc3hOvaJ1JA1-80">
          <mxGeometry y="150" width="180" height="30" as="geometry" />
        </mxCell>
        <mxCell id="8oBaKbRVnc3hOvaJ1JA1-91" value="" style="shape=partialRectangle;connectable=0;fillColor=none;top=0;left=0;bottom=0;right=0;editable=1;overflow=hidden;html=1;whiteSpace=wrap;swimlaneFillColor=default;" vertex="1" parent="8oBaKbRVnc3hOvaJ1JA1-90">
          <mxGeometry width="60" height="30" as="geometry">
            <mxRectangle width="60" height="30" as="alternateBounds" />
          </mxGeometry>
        </mxCell>
        <mxCell id="8oBaKbRVnc3hOvaJ1JA1-92" value="Contact_Number" style="shape=partialRectangle;connectable=0;fillColor=none;top=0;left=0;bottom=0;right=0;align=left;spacingLeft=6;overflow=hidden;html=1;whiteSpace=wrap;swimlaneFillColor=default;" vertex="1" parent="8oBaKbRVnc3hOvaJ1JA1-90">
          <mxGeometry x="60" width="120" height="30" as="geometry">
            <mxRectangle width="120" height="30" as="alternateBounds" />
          </mxGeometry>
        </mxCell>
        <mxCell id="8oBaKbRVnc3hOvaJ1JA1-93" value="" style="shape=tableRow;horizontal=0;startSize=0;swimlaneHead=0;swimlaneBody=0;fillColor=none;collapsible=0;dropTarget=0;points=[[0,0.5],[1,0.5]];portConstraint=eastwest;top=0;left=0;right=0;bottom=0;html=1;swimlaneFillColor=default;" vertex="1" parent="8oBaKbRVnc3hOvaJ1JA1-80">
          <mxGeometry y="180" width="180" height="30" as="geometry" />
        </mxCell>
        <mxCell id="8oBaKbRVnc3hOvaJ1JA1-94" value="" style="shape=partialRectangle;connectable=0;fillColor=none;top=0;left=0;bottom=0;right=0;editable=1;overflow=hidden;html=1;whiteSpace=wrap;swimlaneFillColor=default;perimeterSpacing=0;" vertex="1" parent="8oBaKbRVnc3hOvaJ1JA1-93">
          <mxGeometry width="60" height="30" as="geometry">
            <mxRectangle width="60" height="30" as="alternateBounds" />
          </mxGeometry>
        </mxCell>
        <mxCell id="8oBaKbRVnc3hOvaJ1JA1-95" value="Research_lab" style="shape=partialRectangle;connectable=0;fillColor=none;top=0;left=0;bottom=0;right=0;align=left;spacingLeft=6;overflow=hidden;html=1;whiteSpace=wrap;swimlaneFillColor=default;" vertex="1" parent="8oBaKbRVnc3hOvaJ1JA1-93">
          <mxGeometry x="60" width="120" height="30" as="geometry">
            <mxRectangle width="120" height="30" as="alternateBounds" />
          </mxGeometry>
        </mxCell>
        <mxCell id="8oBaKbRVnc3hOvaJ1JA1-134" value="&lt;b style=&quot;font-size: 16px;&quot;&gt;Belongs To&lt;/b&gt;" style="shape=rhombus;perimeter=rhombusPerimeter;whiteSpace=wrap;html=1;align=center;fillColor=#153065;strokeColor=#001DBC;labelBackgroundColor=none;labelBorderColor=none;textShadow=1;spacingTop=0;fontColor=#ffffff;fillStyle=auto;fontSize=16;" vertex="1" parent="1">
          <mxGeometry x="100" y="-330" width="160" height="80" as="geometry" />
        </mxCell>
        <mxCell id="8oBaKbRVnc3hOvaJ1JA1-154" value="&lt;b style=&quot;font-size: 14px;&quot;&gt;Authored By&lt;/b&gt;" style="shape=rhombus;perimeter=rhombusPerimeter;whiteSpace=wrap;html=1;align=center;fillColor=#153065;strokeColor=#001DBC;labelBackgroundColor=none;labelBorderColor=none;textShadow=1;spacingTop=0;fontColor=#ffffff;fontSize=14;fillStyle=auto;" vertex="1" parent="1">
          <mxGeometry x="370" y="-410" width="140" height="80" as="geometry" />
        </mxCell>
        <mxCell id="8oBaKbRVnc3hOvaJ1JA1-138" value="&lt;b style=&quot;font-size: 14px;&quot;&gt;Part of&lt;/b&gt;" style="shape=rhombus;perimeter=rhombusPerimeter;whiteSpace=wrap;html=1;align=center;fillColor=#153065;strokeColor=#001DBC;labelBackgroundColor=none;labelBorderColor=none;textShadow=1;spacingTop=0;fontColor=#ffffff;fontSize=14;fillStyle=auto;" vertex="1" parent="1">
          <mxGeometry x="590" y="-140" width="120" height="60" as="geometry" />
        </mxCell>
        <mxCell id="8oBaKbRVnc3hOvaJ1JA1-143" value="&lt;b&gt;&lt;font style=&quot;font-size: 15px;&quot;&gt;Supervises&lt;/font&gt;&lt;/b&gt;" style="shape=rhombus;perimeter=rhombusPerimeter;whiteSpace=wrap;html=1;align=center;fillColor=#153065;strokeColor=#001DBC;labelBackgroundColor=none;labelBorderColor=none;textShadow=1;spacingTop=0;fontColor=#ffffff;fillStyle=auto;" vertex="1" parent="1">
          <mxGeometry x="450" y="-22.5" width="150" height="75" as="geometry" />
        </mxCell>
        <mxCell id="8oBaKbRVnc3hOvaJ1JA1-147" value="&lt;b style=&quot;font-size: 13px;&quot;&gt;&lt;font style=&quot;font-size: 13px;&quot;&gt;Faculty&amp;nbsp;&lt;/font&gt;&lt;/b&gt;&lt;div style=&quot;font-size: 13px;&quot;&gt;&lt;b style=&quot;&quot;&gt;&lt;font style=&quot;font-size: 13px;&quot;&gt;Collabirates_On&lt;/font&gt;&lt;/b&gt;&lt;/div&gt;" style="shape=rhombus;perimeter=rhombusPerimeter;whiteSpace=wrap;html=1;align=center;fillColor=#153065;strokeColor=#001DBC;labelBackgroundColor=none;labelBorderColor=none;textShadow=1;spacingTop=0;fontColor=#ffffff;fillStyle=auto;" vertex="1" parent="1">
          <mxGeometry x="100" y="200" width="170" height="90" as="geometry" />
        </mxCell>
        <mxCell id="8oBaKbRVnc3hOvaJ1JA1-148" value="&lt;b style=&quot;font-size: 13px;&quot;&gt;&lt;font style=&quot;font-size: 13px;&quot;&gt;Student&amp;nbsp;&lt;/font&gt;&lt;/b&gt;&lt;div style=&quot;font-size: 13px;&quot;&gt;&lt;b style=&quot;&quot;&gt;&lt;font style=&quot;font-size: 13px;&quot;&gt;Collabirates_On&lt;/font&gt;&lt;/b&gt;&lt;/div&gt;" style="shape=rhombus;perimeter=rhombusPerimeter;whiteSpace=wrap;html=1;align=center;fillColor=#153065;strokeColor=#001DBC;labelBackgroundColor=none;labelBorderColor=none;textShadow=1;spacingTop=0;fontColor=#ffffff;fillStyle=auto;" vertex="1" parent="1">
          <mxGeometry x="765" y="200" width="170" height="90" as="geometry" />
        </mxCell>
        <mxCell id="8oBaKbRVnc3hOvaJ1JA1-136" value="" style="fontSize=12;html=1;endArrow=ERoneToMany;rounded=0;exitX=0.5;exitY=1;exitDx=0;exitDy=0;entryX=0.5;entryY=0;entryDx=0;entryDy=0;strokeWidth=2;" edge="1" parent="1" source="8oBaKbRVnc3hOvaJ1JA1-134" target="8oBaKbRVnc3hOvaJ1JA1-51">
          <mxGeometry width="100" height="100" relative="1" as="geometry">
            <mxPoint x="390" y="400" as="sourcePoint" />
            <mxPoint x="40" y="430" as="targetPoint" />
          </mxGeometry>
        </mxCell>
        <mxCell id="8oBaKbRVnc3hOvaJ1JA1-140" value="" style="fontSize=12;html=1;endArrow=ERoneToMany;rounded=0;entryX=0;entryY=0.5;entryDx=0;entryDy=0;exitX=1;exitY=0.5;exitDx=0;exitDy=0;strokeWidth=2;startSize=9;jumpStyle=arc;edgeStyle=orthogonalEdgeStyle;" edge="1" parent="1" source="8oBaKbRVnc3hOvaJ1JA1-138" target="8oBaKbRVnc3hOvaJ1JA1-96">
          <mxGeometry width="100" height="100" relative="1" as="geometry">
            <mxPoint x="870" y="-220" as="sourcePoint" />
            <mxPoint x="1000" y="45" as="targetPoint" />
          </mxGeometry>
        </mxCell>
        <mxCell id="8oBaKbRVnc3hOvaJ1JA1-137" value="" style="edgeStyle=entityRelationEdgeStyle;fontSize=12;html=1;endArrow=ERzeroToOne;endFill=1;rounded=0;exitX=1;exitY=0.5;exitDx=0;exitDy=0;entryX=0;entryY=0.5;entryDx=0;entryDy=0;strokeWidth=2;" edge="1" parent="1" source="8oBaKbRVnc3hOvaJ1JA1-134" target="kS2PvovKEGz4N7qrqJaT-5">
          <mxGeometry width="100" height="100" relative="1" as="geometry">
            <mxPoint x="440" y="310" as="sourcePoint" />
            <mxPoint x="540" y="210" as="targetPoint" />
          </mxGeometry>
        </mxCell>
        <mxCell id="8oBaKbRVnc3hOvaJ1JA1-139" value="" style="edgeStyle=entityRelationEdgeStyle;fontSize=12;html=1;endArrow=ERzeroToOne;endFill=1;rounded=0;exitX=0;exitY=0.5;exitDx=0;exitDy=0;entryX=1;entryY=0.25;entryDx=0;entryDy=0;strokeWidth=2;" edge="1" parent="1" source="8oBaKbRVnc3hOvaJ1JA1-138" target="kS2PvovKEGz4N7qrqJaT-1">
          <mxGeometry width="100" height="100" relative="1" as="geometry">
            <mxPoint x="740" y="-100" as="sourcePoint" />
            <mxPoint x="800" y="-50" as="targetPoint" />
          </mxGeometry>
        </mxCell>
        <mxCell id="8oBaKbRVnc3hOvaJ1JA1-144" value="" style="edgeStyle=entityRelationEdgeStyle;fontSize=12;html=1;endArrow=ERzeroToMany;endFill=1;rounded=0;entryX=0;entryY=0.5;entryDx=0;entryDy=0;exitX=1;exitY=0.5;exitDx=0;exitDy=0;strokeWidth=2;" edge="1" parent="1" source="8oBaKbRVnc3hOvaJ1JA1-143" target="8oBaKbRVnc3hOvaJ1JA1-87">
          <mxGeometry width="100" height="100" relative="1" as="geometry">
            <mxPoint x="530" y="140" as="sourcePoint" />
            <mxPoint x="630" y="40" as="targetPoint" />
          </mxGeometry>
        </mxCell>
        <mxCell id="8oBaKbRVnc3hOvaJ1JA1-145" value="" style="edgeStyle=entityRelationEdgeStyle;fontSize=12;html=1;endArrow=ERmandOne;rounded=0;entryX=1;entryY=0.5;entryDx=0;entryDy=0;exitX=0;exitY=0.5;exitDx=0;exitDy=0;curved=0;strokeWidth=2;" edge="1" parent="1" source="8oBaKbRVnc3hOvaJ1JA1-143" target="8oBaKbRVnc3hOvaJ1JA1-61">
          <mxGeometry width="100" height="100" relative="1" as="geometry">
            <mxPoint x="530" y="140" as="sourcePoint" />
            <mxPoint x="340" y="180" as="targetPoint" />
          </mxGeometry>
        </mxCell>
        <mxCell id="8oBaKbRVnc3hOvaJ1JA1-149" value="" style="fontSize=12;html=1;endArrow=ERmandOne;rounded=0;exitX=0.5;exitY=0;exitDx=0;exitDy=0;strokeWidth=2;" edge="1" parent="1" source="8oBaKbRVnc3hOvaJ1JA1-148" target="8oBaKbRVnc3hOvaJ1JA1-93">
          <mxGeometry width="100" height="100" relative="1" as="geometry">
            <mxPoint x="1000" y="200" as="sourcePoint" />
            <mxPoint x="950" y="92" as="targetPoint" />
          </mxGeometry>
        </mxCell>
        <mxCell id="8oBaKbRVnc3hOvaJ1JA1-150" value="" style="fontSize=12;html=1;endArrow=ERzeroToMany;endFill=1;rounded=0;exitX=0;exitY=0.5;exitDx=0;exitDy=0;entryX=1;entryY=0.5;entryDx=0;entryDy=0;strokeWidth=2;" edge="1" parent="1" source="8oBaKbRVnc3hOvaJ1JA1-148" target="8oBaKbRVnc3hOvaJ1JA1-103">
          <mxGeometry width="100" height="100" relative="1" as="geometry">
            <mxPoint x="810" y="370" as="sourcePoint" />
            <mxPoint x="670" y="300" as="targetPoint" />
          </mxGeometry>
        </mxCell>
        <mxCell id="8oBaKbRVnc3hOvaJ1JA1-151" value="" style="edgeStyle=entityRelationEdgeStyle;fontSize=12;html=1;endArrow=ERoneToMany;rounded=0;entryX=0;entryY=0.5;entryDx=0;entryDy=0;exitX=1;exitY=0.5;exitDx=0;exitDy=0;strokeWidth=2;" edge="1" parent="1" source="8oBaKbRVnc3hOvaJ1JA1-147" target="8oBaKbRVnc3hOvaJ1JA1-103">
          <mxGeometry width="100" height="100" relative="1" as="geometry">
            <mxPoint x="530" y="320" as="sourcePoint" />
            <mxPoint x="630" y="220" as="targetPoint" />
          </mxGeometry>
        </mxCell>
        <mxCell id="8oBaKbRVnc3hOvaJ1JA1-152" value="" style="fontSize=12;html=1;endArrow=ERzeroToMany;endFill=1;rounded=0;exitX=0.5;exitY=0;exitDx=0;exitDy=0;entryX=0.524;entryY=1.067;entryDx=0;entryDy=0;entryPerimeter=0;strokeWidth=2;" edge="1" parent="1" source="8oBaKbRVnc3hOvaJ1JA1-147" target="8oBaKbRVnc3hOvaJ1JA1-77">
          <mxGeometry width="100" height="100" relative="1" as="geometry">
            <mxPoint x="530" y="220" as="sourcePoint" />
            <mxPoint x="205" y="70" as="targetPoint" />
          </mxGeometry>
        </mxCell>
        <mxCell id="8oBaKbRVnc3hOvaJ1JA1-156" value="" style="fontSize=12;html=1;endArrow=ERzeroToMany;endFill=1;rounded=0;entryX=0.5;entryY=0;entryDx=0;entryDy=0;exitX=0.5;exitY=1;exitDx=0;exitDy=0;strokeWidth=2;" edge="1" parent="1" source="8oBaKbRVnc3hOvaJ1JA1-154" target="kS2PvovKEGz4N7qrqJaT-1">
          <mxGeometry width="100" height="100" relative="1" as="geometry">
            <mxPoint x="530" y="-180" as="sourcePoint" />
            <mxPoint x="630" y="-280" as="targetPoint" />
          </mxGeometry>
        </mxCell>
        <mxCell id="8oBaKbRVnc3hOvaJ1JA1-157" value="" style="fontSize=12;html=1;endArrow=ERmandOne;rounded=0;entryX=0;entryY=0.5;entryDx=0;entryDy=0;exitX=1;exitY=0.5;exitDx=0;exitDy=0;strokeWidth=2;edgeStyle=orthogonalEdgeStyle;" edge="1" parent="1" source="8oBaKbRVnc3hOvaJ1JA1-154" target="8oBaKbRVnc3hOvaJ1JA1-122">
          <mxGeometry width="100" height="100" relative="1" as="geometry">
            <mxPoint x="530" y="-180" as="sourcePoint" />
            <mxPoint x="630" y="-280" as="targetPoint" />
          </mxGeometry>
        </mxCell>
      </root>
    </mxGraphModel>
  </diagram>
</mxfile>
